# xmcd
#
# Track frame offsets: 
#        183
#        18028
#        33640
#        44410
#        58280
#        71668
#        83645
#        96628
#        109450
#        121223
#        133578
#        148243
#        161030
#        175728
#        187690
#        200430
#        213698
#        226688
#        240763
#        253440
#        265715
#        278985
#        292868
#        307425
#
# Disc length: 4438 seconds
#
# Revision: 2
# Processed by: cddbd v1.5.2PL0 Copyright (c) Steve Scherf et al.
# Submitted via: ExactAudioCopyFreeDBPlugin 1.0
#
DISCID=6b115418
DTITLE=Howlin' Wolf - Howlin' Wolf:  The Complete Recordings, 1951-196
DTITLE=9 [Charly box set]
DYEAR=1993
DGENRE=Blues
TTITLE0=Sugar Mama
TTITLE1=May I Have a Talk with You
TTITLE2=Hidden Charms
TTITLE3=300 Pounds of Joy
TTITLE4=Joy to My Soul
TTITLE5=Built for Comfort
TTITLE6=Love Me Darlin'
TTITLE7=Killing Floor
TTITLE8=My Country Sugar Mama
TTITLE9=Louise
TTITLE10=I Walked from Dallas
TTITLE11=Tell Me What I've Done
TTITLE12=Don't Laugh at Me
TTITLE13=Ooh Baby, Hold Me
TTITLE14=Poor Wind That Never Change
TTITLE15=New Crawlin' King Snake
TTITLE16=My Mind is Ramblin'
TTITLE17=Commit a Crime
TTITLE18=Pop it to Me
TTITLE19=I Had a Dream
TTITLE20=Dust My Broom
TTITLE21=Mary Sue
TTITLE22=Hard Luck
TTITLE23=Tired of Crying
EXTD=
EXTT0=
EXTT1=
EXTT2=
EXTT3=
EXTT4=
EXTT5=
EXTT6=
EXTT7=
EXTT8=
EXTT9=
EXTT10=
EXTT11=
EXTT12=
EXTT13=
EXTT14=
EXTT15=
EXTT16=
EXTT17=
EXTT18=
EXTT19=
EXTT20=
EXTT21=
EXTT22=
EXTT23=
PLAYORDER=
